<?xml version="1.0" encoding="UTF-8" standalone="no"?>
<!-- Created with Inkscape (http://www.inkscape.org/) -->

<svg
   version="1.1"
   id="svg127"
   width="614.70404"
   height="659.63788"
   viewBox="0 0 614.70404 659.63788"
   sodipodi:docname="IMG_4371.JPG"
   inkscape:export-filename="logo.svg"
   inkscape:export-xdpi="96"
   inkscape:export-ydpi="96"
   xmlns:inkscape="http://www.inkscape.org/namespaces/inkscape"
   xmlns:sodipodi="http://sodipodi.sourceforge.net/DTD/sodipodi-0.dtd"
   xmlns="http://www.w3.org/2000/svg"
   xmlns:svg="http://www.w3.org/2000/svg">
  <defs
     id="defs131" />
  <sodipodi:namedview
     id="namedview129"
     pagecolor="#ffffff"
     bordercolor="#000000"
     borderopacity="0.25"
     inkscape:showpageshadow="2"
     inkscape:pageopacity="0.0"
     inkscape:pagecheckerboard="0"
     inkscape:deskcolor="#d1d1d1"
     showgrid="false" />
  <g
     inkscape:groupmode="layer"
     inkscape:label="Image"
     id="g133">
    <path
       style="fill:#000000"
       d="m 227.65143,657.28112 c -14.22415,-7.17944 -12.34449,-19.74036 6.09469,-40.7281 l 10.94671,-12.45971 -2.60937,-2.41954 c -2.23533,-2.07272 -2.52086,-2.9731 -1.99189,-6.2811 0.7604,-4.75526 -0.56094,-4.9652 -3.30506,-0.52511 l -2.06204,3.33644 -48.26952,0.60337 C 134.54328,599.45628 108.735,598.65727 99.185417,596.10556 23.624787,575.9153 -18.190203,492.49013 7.6637268,413.51043 25.912587,357.76301 75.033757,315.94823 129.56776,309.73866 l 6.21379,-0.70754 2.27311,-6.5 c 6.59129,-18.84795 25.1046,-47.42874 38.13033,-58.86548 l 3.50043,-3.07342 V 201.7124 162.83257 l -13.75,-7.51681 c -13.29163,-7.26622 -17.66244,-9.58335 -49.5072,-26.24563 -15.84102,-8.28857 -17.742803,-9.96846 -17.742803,-15.67262 0,-5.83872 2.941623,-7.44937 32.530073,-17.811474 14.83346,-5.19479 36.04781,-12.62606 47.143,-16.51392 l 20.17307,-7.06884 6.32693,-8.98608 C 291.48971,-60.024294 464.75255,8.9761059 467.39142,167.56863 l 0.55804,33.53751 8.38099,5.40099 c 57.44431,37.01895 92.55224,105.15068 82.45955,160.02399 l -1.0116,5.5 5.20351,4.49097 c 80.90768,69.8286 64.07302,189.38735 -30.79649,218.7149 l -9,2.78222 -60.93244,0.006 -60.93244,0.006 -2.06756,-4.20333 c -2.51728,-5.11759 -3.29181,-5.37466 -2.77174,-0.91993 0.30057,2.57462 -0.10207,3.72436 -1.69501,4.8401 -2.66778,1.86858 -0.68382,4.18306 15.66846,18.27869 20.86349,17.98429 22.65142,32.83781 4.58491,38.08988 -13.16948,3.82848 -22.00084,-4.08536 -26.46398,-23.71454 -3.56522,-15.68002 -8.29157,-24.104 -12.0477,-21.4731 -3.47421,2.43343 -6.11839,1.94454 -9.75044,-1.80279 l -3.30027,-3.40502 -6.9372,2.3595 c -25.12693,8.54622 -51.13405,9.21208 -75.80323,1.94079 -10.58154,-3.11893 -10.10074,-3.1609 -12.8775,1.12425 -2.23392,3.44744 -2.49942,3.56377 -6.69709,2.93429 -5.31707,-0.79735 -5.74211,0.26925 -7.35292,18.45121 -2.1476,24.24093 -11.72476,34.0349 -26.15784,26.75 z m 114.72293,-67.32166 c 121.40181,-31.5103 92.17036,-214.25707 -32.38398,-202.45547 -117.76417,11.15822 -128.60775,183.87976 -12.80496,203.96325 3.3,0.57231 7.125,1.24095 8.5,1.48586 6.50983,1.1595 27.18859,-0.52779 36.68894,-2.99364 z m -38.96584,-11.49048 c -56.48492,-7.79091 -91.26297,-71.65126 -66.79325,-122.64751 28.5036,-59.40308 101.6796,-73.50502 145.72103,-28.08226 58.39695,60.22851 4.9491,162.29883 -78.92778,150.72977 z m 7.69567,-19.68786 c -0.34063,-1.5125 -1.11176,-4.55 -1.71361,-6.75 -0.60185,-2.2 -1.05838,-10.1875 -1.01451,-17.75 0.0729,-12.56026 -0.0747,-13.75 -1.70496,-13.75 -0.98159,0 -4.03845,-1.51665 -6.79301,-3.37033 l -5.00829,-3.37034 -2.17816,2.94612 c -2.94138,3.97842 -13.90041,10.86454 -22.75623,14.29891 -14.84663,5.75765 14.7448,27.70007 41.01905,30.41614 0.42298,0.0437 0.49035,-1.158 0.14972,-2.6705 z m 36.14365,-4.74783 c 10.23403,-4.92237 31.9028,-24.76537 29.33613,-26.86432 -0.2192,-0.17926 -4.44855,-1.57009 -9.39855,-3.09073 -10.54804,-3.24036 -14.49736,-5.1354 -20.92128,-10.03889 l -4.72262,-3.60486 -3.17805,3.17416 c -1.74793,1.74579 -5.12763,4.05499 -7.51044,5.13155 l -4.33239,1.9574 0.83239,5.16676 c 0.45781,2.84172 0.81495,11.74218 0.79363,19.77879 l -0.0388,14.61204 6.02359,-1.40521 c 3.31298,-0.77287 9.21534,-2.94038 13.11635,-4.81669 z m -75.57411,-46.49636 c 2.46857,-1.25928 6.74357,-3.0562 9.5,-3.99314 2.75643,-0.93694 4.96669,-2.22308 4.91169,-2.8581 -0.055,-0.63501 -0.1675,-3.34046 -0.25,-6.01211 l -0.15,-4.85755 -5.93393,-0.62022 c -7.22576,-0.75524 -17.09127,-4.58872 -25.05425,-9.73544 l -5.93829,-3.83811 -0.66773,3.55932 c -1.50161,8.00423 0.22714,27.43369 3.16655,35.58893 l 2.78952,7.73938 6.56906,-6.34167 c 3.61299,-3.48792 8.58881,-7.372 11.05738,-8.63129 z m 113.91352,0.24419 c 4.05234,-15.52354 3.45601,-31.47088 -1.55015,-41.45473 l -1.35622,-2.70473 -4.41182,4.70473 c -5.75606,6.13821 -14.0399,11.06415 -22.9312,13.63592 l -7.15244,2.06881 0.29381,7.25 c 0.29381,7.25 0.29381,7.25 3.19838,7.25 4.83169,0 18.10405,4.71491 25.00781,8.88385 8.08402,4.88165 7.72692,4.86696 8.90183,0.36615 z m -62.10217,-2.65499 c 10.54587,-5.48701 10.96714,-19.24978 0.7819,-25.5446 -9.14137,-5.64968 -21.58156,1.19737 -21.58156,11.87843 0,10.75366 11.66578,18.41853 20.79966,13.66617 z m -25.94082,-36.82277 c 1.72725,-1.45339 4.71562,-3.21212 6.64081,-3.90827 1.92519,-0.69616 3.50027,-1.51285 3.50018,-1.81486 -10e-5,-0.30201 -0.70967,-4.14911 -1.57683,-8.54911 -1.20025,-6.09011 -1.41871,-10.95827 -0.91507,-20.39136 l 0.66159,-12.39136 -4.33476,0.67306 c -14.27259,2.21614 -32.46083,15.59827 -42.58476,31.33206 -5.38049,8.36192 -5.72352,7.59295 4.5,10.08756 8.58021,2.09364 24.04254,9.03022 26.36373,11.82707 0.98154,1.18269 1.45849,0.95117 2.89009,-1.40291 0.943,-1.55065 3.12776,-4.00849 4.85502,-5.46188 z m 53.29412,-5.30593 c 3.18272,-2.34298 10.07533,-5.95735 15.3169,-8.03193 5.24158,-2.07457 9.52614,-4.0335 9.52125,-4.35317 -0.0555,-3.63134 -16.6286,-18.28329 -26.19193,-23.15579 -7.06862,-3.60145 -27.79918,-9.14064 -27.79918,-7.42793 0,0.20447 0.72642,3.66368 1.61428,7.68713 1.00051,4.53402 1.66588,12.60651 1.75,21.23183 l 0.13572,13.91645 4.13573,1.37879 c 2.27465,0.75834 5.87465,2.90425 8,4.76869 l 3.86427,3.3899 1.9331,-2.572 c 1.06321,-1.4146 4.53715,-4.48899 7.71986,-6.83197 z m -132.7861,100.8038 c -16.79141,-23.40374 -25.69257,-58.48133 -21.51095,-84.77011 1.14743,-7.21357 0.73285,-8.46451 -3.24772,-9.79955 -0.61017,-0.20464 -1.10819,-2.58021 -1.10819,-5.28606 v -4.91439 l -18.5,-0.54083 c -27.27742,-0.79742 -36.87852,-6.95016 -32.96466,-21.12497 4.5126,-16.34332 19.34904,-15.99691 45.46466,1.06154 l 11,7.18509 1.34174,-3.29042 c 2.09538,-5.13857 4.07261,-6.79041 8.12804,-6.79041 3.24339,0 3.86291,-0.42593 5.44495,-3.74351 13.03475,-27.33415 47.05935,-52.4718 80.79997,-59.69566 1.56496,-0.33506 2.53235,-1.10631 2.28414,-1.82102 -1.19544,-3.44221 1.07009,-8.08473 4.52559,-9.27385 4.54029,-1.56242 4.41895,-2.91598 -1.61629,-18.02987 -9.56259,-23.94734 -4.81657,-38.28319 12.32451,-37.22741 14.27768,0.87942 18.80082,14.4937 11.89113,35.79132 -4.52363,13.94311 -4.49998,16.60427 0.15418,17.3485 4.67075,0.74689 5.72696,1.85192 6.64682,6.95406 0.37706,2.0914 1.22324,3.9491 1.88039,4.12822 0.65716,0.17911 5.43334,1.08416 10.61373,2.01121 23.07165,4.12875 43.31912,14.24072 59.73187,29.83122 6.89297,6.54765 7.56859,6.94787 9.92004,5.87648 3.88886,-1.77188 5.5667,-1.40874 9.03848,1.95624 l 3.20451,3.10593 3.8431,-4.19556 c 2.11371,-2.30756 6.43264,-8.31772 9.59764,-13.35593 12.67354,-20.17439 28.47068,-23.63833 37.82686,-8.29454 6.22575,10.20999 -5.78193,28.62405 -18.67163,28.63338 -2.55529,0.002 -18.44738,5.89138 -21.21523,7.86227 l -3.02134,2.15138 2.12254,3.87498 2.12254,3.87499 -2.75506,3.61206 -2.75505,3.61206 2.94935,9.85847 c 5.02084,16.78262 7.02159,49.39323 3.66641,59.75939 -0.54959,1.69802 0.0241,2.52095 2.96814,4.25801 3.53858,2.08781 3.63965,2.30963 3.32866,7.30509 -0.40919,6.57277 -0.20366,6.64191 23.25,7.82128 26.40042,1.32755 35.1208,6.81035 30.94691,19.45736 -4.41841,13.3879 -17.0173,13.55073 -42.94484,0.55503 -16.52773,-8.28422 -17.22485,-8.38792 -19.3869,-2.88387 -1.65312,4.20843 -3.78517,4.70011 -10.01485,2.30955 -0.65281,-0.2505 -2.61458,1.91339 -4.35949,4.80864 -1.74492,2.89526 -5.46878,8.09739 -8.27524,11.56031 l -5.10267,6.29621 56.78317,-0.32072 c 68.18464,-0.38512 68.74919,-0.5011 89.76564,-18.4421 42.79372,-36.53145 43.80065,-97.0354 2.34378,-140.83172 -9.73284,-10.28207 -8.40123,-10.26142 -15.9822,-0.24788 -22.9839,30.35895 -46.62279,30.65631 -41.76121,0.52532 9.29992,-57.63873 -28.13646,-111.32445 -77.58283,-111.2578 -28.95278,0.039 -51.00686,23.90367 -42.49387,45.98248 l 1.15672,3 1.66857,-4.91806 c 5.86865,-17.29756 32.16858,-13.94713 32.16858,4.09806 0,20.25648 -31.51516,28.75767 -45.40676,12.24844 -21.40266,-25.43562 12.41609,-70.66303 57.15676,-76.43842 6.35879,-0.82082 6.33738,-0.28119 0.332,-8.36771 -82.6873,-111.34218 -285.15292,-51.06425 -271.507,80.83289 1.39285,13.46288 -0.97355,18.87451 -8.95115,20.47003 -9.9997,1.99994 -14.6683,-6.44866 -15.38742,-27.84604 l -0.52,-15.47248 -3.10821,0.54302 C 39.855067,350.28208 -2.1541532,454.53297 47.977727,529.53112 c 10.20043,15.26002 28.35587,30.45511 43.88107,36.72602 12.267953,4.95525 14.497723,5.10961 75.033023,5.19448 l 56.70641,0.0795 z M 494.43542,262.78526 c 3.48354,-4.56037 0.89944,-7.50301 -21.24787,-24.19597 -23.46139,-17.6834 -26.03691,-18.7502 -30.142,-12.48505 -2.34793,3.5834 -0.3376,5.97107 13.40448,15.92055 6.08202,4.40348 15.66383,11.52611 21.29292,15.82807 10.75832,8.22191 13.54965,9.04671 16.69247,4.9324 z M 242.4173,202.2142 c 48.62483,-15.91421 90.2864,-13.82379 137.80412,6.91452 1.25056,0.54578 9.08206,-12.23625 13.84577,-22.5981 17.37791,-37.79983 7.85925,-81.50664 -23.11068,-106.117324 -46.59042,-37.02369 -113.23303,-13.30105 -119.72376,42.617824 -3.27916,28.25069 -17.05151,46.33818 -37.31429,49.00561 -2.60317,0.34268 -5.97054,0.85486 -7.48304,1.13818 l -2.75,0.51512 v 23.32613 23.32612 l 15.25,-7.71695 c 8.3875,-4.24432 18.95435,-8.92933 23.48188,-10.41113 z m 67.93826,-56.30628 c -6.90565,-2.12164 -13.09338,-8.58502 -15.21902,-15.89695 -6.77444,-23.30324 21.576,-41.098304 39.5729,-24.83919 19.31028,17.44568 0.77127,48.45543 -24.35388,40.73614 z m 6.25728,-19.01166 c 2.72177,-3.46016 2.61667,-5.91196 -0.38197,-8.91059 -4.5529,-4.55291 -11.54545,-1.8439 -11.54545,4.47287 0,6.16978 8.17304,9.21064 11.92742,4.43772 z m -104.17742,35.00768 c 7.61115,-4.79985 2.27303,-7.54579 -54.25,-27.90627 -12.65,-4.55672 -24.73614,-9.02717 -26.85809,-9.93433 -6.65491,-2.84506 -4.84684,-1.16263 3.17152,2.95112 7.90764,4.05696 28.93695,15.39408 51.51731,27.77353 18.47013,10.12606 20.69561,10.72548 26.41926,7.11595 z m -53.25,-55.75782 c 54.53606,-11.078034 60.96364,-13.206064 57.20669,-18.939904 -2.01061,-3.06858 -7.55045,-5.6751 -12.06173,-5.6751 -4.96875,0 -85.3986,27.251524 -87.6075,29.683484 -1.65605,1.82328 23.05669,-1.12652 42.46254,-5.06848 z"
       id="path295" />
  </g>
</svg>
